<svg id="Layer_1" data-name="Layer 1" xmlns="http://www.w3.org/2000/svg" viewBox="0 0 554.67 548.34"><defs><style>.cls-1{fill:#70bfc2;}.cls-2{fill:#d15945;}.cls-3{fill:#d15944;}.cls-4{fill:#d15844;}.cls-5{fill:#71c0c3;}.cls-6{fill:#ddd5d2;}.cls-7{fill:#dadddb;}.cls-8{fill:#eedfdc;}.cls-9{fill:#d4dedd;}.cls-10{fill:#dddddb;}</style></defs><path class="cls-1" d="M545.82,352C520.29,459,461,517,372.17,522c-96.34,13.46-165.43-17.23-194.2-86.2,1.83-37.27,27.48-43.36,57.22-40.45,34,3.32,66.81,13.23,99,24.33,16.09,5.77,31.94,12.49,48.76,16.13,52.71,2.33,69.75-46,102.38-71.59C517.32,339.14,516.09,337.61,545.82,352Z" transform="translate(-2.66 -5.83)"/><path class="cls-2" d="M384.88,449.17c-15.47-.54-32.17,3.21-43.36-12.21-15.68-43.36,23.63-59.49,43.15-85.39C412.72,314.36,466,294.89,466,238c-4.25-46.61-31.12-89.76-21.57-138.44,1.93-7.65,1.08-24,10.37-19.4C515.29,109.9,580.72,254.71,541,309.36,494.06,361.56,457.71,425.35,384.88,449.17Z" transform="translate(-2.66 -5.83)"/><path class="cls-3" d="M187.18,434.5c36,82.39,122,61.1,185,87.53-79.93,53-199,38.53-241.64-29.39C87.57,445.1,85.25,383.88,77.13,326c-4.45-31.77,14-57.25,50.61-62.39C184,308.08,177.54,374,187.18,434.5Z" transform="translate(-2.66 -5.83)"/><path class="cls-4" d="M5,239.86C8.79,167.79,47.21,115.81,99.53,69c23.86-21.36,45.71-29.36,75.21-21.41,55.82-10,106.57,11.79,156.17,29.76,41.2,14.92,59.39,46.08,21.49,85.73-46.62,17.16-86.54-11.7-129.67-18.51-50.38-23.31-87.56-6.22-124.25,31.94C72.84,203.14,53.68,244.58,5,239.86Z" transform="translate(-2.66 -5.83)"/><path class="cls-1" d="M192,17.67C243.93,7.44,293.88-1.21,348.64,14.26c48.8,13.79,77,35.67,82.93,85,28.91,44.33,27.46,98.21,46.64,145.64-1.56,31.79-19.38,55.47-49.61,55.19-30.69-.28-34.49-33.15-41.63-56.65-8-26.26-17-52.6-16.84-80.62,6.48-57-20-84.6-77-91.08-29.74-3.38-59-13.21-88.14-21.56C187,45,173.32,37.54,192,17.67Z" transform="translate(-2.66 -5.83)"/><path class="cls-5" d="M90.51,480.36C15.13,408.94-10.89,322.09,22.72,254.07,48.79,206.52,94.41,176.68,130.21,138c29.21-31.6,59.11-13.37,88.5.93-3.9,63.64-60.4,85.64-98.53,122.19C77.35,287.18,80.45,322.53,87.37,367.3,92.92,403.17,142.47,442.31,90.51,480.36Z" transform="translate(-2.66 -5.83)"/><path class="cls-6" d="M90.51,480.36c28.58-42-4.31-78.24-14-115-13.41-50.66-9.07-88.8,42.91-112.18,12.15-2.41,15.73,3,13,14C92,283.07,83.48,311.45,95.08,351.27c13.58,46.63,23.78,94.21,35.45,141.37C112.34,504.05,98.66,501,90.51,480.36Z" transform="translate(-2.66 -5.83)"/><path class="cls-7" d="M192,17.67c17.46,43.81,60.94,33.87,93.39,39.88,59.2,11,97.5,35.66,99,99.72-11.82,19-23.76,36.11-39,2.51,32.4-38.24,9.19-57.46-26.13-69.15-47.69-15.78-96.29-28.85-144.49-43.08C174.8,34.37,175.14,21.34,192,17.67Z" transform="translate(-2.66 -5.83)"/><path class="cls-8" d="M216.58,141.87c-42.1-21-73.39-9-103.2,26.06-26.86,31.54-60.21,57.64-90.68,86.14C15.92,250.42-4.09,262.93,5,239.86c41.88-23,70.77-60.51,102.15-94.22,34.29-36.84,68-46.2,110.53-17.6q5,5,2.83,9.49T216.58,141.87Z" transform="translate(-2.66 -5.83)"/><path class="cls-9" d="M384.88,449.17C446.35,412.91,482.25,348.62,541,309.36c21.58,12,20.32,26.51,4.82,42.61-53.58-1.22-64.49,53.87-101,75C426.21,437.7,418.05,477,384.88,449.17Z" transform="translate(-2.66 -5.83)"/><path class="cls-10" d="M472.37,239.71c-25.19-43.52-30.21-92.78-40.81-140.46q6.45.27,12.89.34c22.39,44.21,30.41,92.41,39.84,140.23Q478.25,249.86,472.37,239.71Z" transform="translate(-2.66 -5.83)"/></svg>