<svg xmlns="http://www.w3.org/2000/svg" viewBox="0 0 529.92 240.41"><defs><style>.cls-1{font-size:90.91px;fill:#5a646d;font-family:CaviarDreams-Bold, Caviar Dreams;font-weight:700;letter-spacing:0.07em;}.cls-2{letter-spacing:0.06em;}.cls-3{letter-spacing:0.07em;}.cls-4{fill:#70bfc2;}.cls-5{fill:#d15945;}.cls-6{fill:#d15944;}.cls-7{fill:#d15844;}.cls-8{fill:#71c0c3;}.cls-9{fill:#ddd5d2;}.cls-10{fill:#dadddb;}.cls-11{fill:#eedfdc;}.cls-12{fill:#d4dedd;}.cls-13{fill:#dddddb;}</style></defs><g id="Layer_1" data-name="Layer 1"><text class="cls-1" transform="translate(0 214.49)">General<tspan class="cls-2" x="395.43" y="0"> </tspan><tspan class="cls-3" x="432.15" y="0">AI</tspan></text><path class="cls-4" d="M332.65,247.45c-5.53,23.16-18.35,35.73-37.59,36.81-20.85,2.92-35.81-3.72-42-18.66.4-8.06,6-9.38,12.39-8.75,7.37.72,14.46,2.86,21.44,5.26a84.66,84.66,0,0,0,10.55,3.5c11.41.5,15.1-10,22.17-15.5C326.48,244.67,326.22,244.34,332.65,247.45Z" transform="translate(-15.04 -172.52)"/><path class="cls-5" d="M297.81,268.49c-3.35-.12-7,.69-9.38-2.64-3.4-9.39,5.11-12.88,9.34-18.49,6.07-8.05,17.6-12.27,17.61-24.58-.92-10.09-6.74-19.43-4.67-30,.42-1.65.23-5.18,2.24-4.2,13.09,6.44,27.26,37.78,18.66,49.61C321.45,249.52,313.58,263.33,297.81,268.49Z" transform="translate(-15.04 -172.52)"/><path class="cls-6" d="M255,265.31c7.79,17.84,26.4,13.23,40,18.95-17.3,11.48-43.08,8.34-52.31-6.36-9.3-10.29-9.8-23.54-11.56-36.08-1-6.88,3-12.4,11-13.51C254.32,238,252.93,252.22,255,265.31Z" transform="translate(-15.04 -172.52)"/><path class="cls-7" d="M215.57,223.18c.83-15.6,9.14-26.85,20.47-37,5.16-4.62,9.9-6.35,16.28-4.63,12.09-2.16,23.07,2.55,33.81,6.44,8.92,3.23,12.85,10,4.65,18.56-10.09,3.72-18.73-2.53-28.07-4-10.9-5-18.95-1.34-26.9,6.92C230.26,215.23,226.11,224.2,215.57,223.18Z" transform="translate(-15.04 -172.52)"/><path class="cls-4" d="M256.06,175.08c11.24-2.21,22.05-4.09,33.91-.74,10.56,3,16.68,7.72,17.95,18.4,6.26,9.6,5.94,21.26,10.1,31.53-.34,6.88-4.2,12-10.74,11.95s-7.47-7.18-9-12.27c-1.72-5.68-3.68-11.38-3.64-17.45,1.4-12.34-4.33-18.31-16.66-19.72-6.44-.73-12.78-2.85-19.08-4.66C255,181,252,179.38,256.06,175.08Z" transform="translate(-15.04 -172.52)"/><path class="cls-8" d="M234.09,275.24c-16.32-15.46-22-34.26-14.68-49,5.65-10.3,15.52-16.76,23.27-25.14,6.32-6.84,12.8-2.9,19.16.2-.84,13.77-13.07,18.54-21.33,26.45-9.27,5.65-8.6,13.3-7.1,23C234.61,258.53,245.34,267,234.09,275.24Z" transform="translate(-15.04 -172.52)"/><path class="cls-9" d="M234.09,275.24c6.19-9.09-.94-16.93-3-24.9-2.9-11-2-19.22,9.29-24.28,2.63-.52,3.4.64,2.82,3-8.75,3.43-10.59,9.58-8.08,18.2,2.94,10.09,5.15,20.39,7.67,30.6C238.81,280.37,235.85,279.72,234.09,275.24Z" transform="translate(-15.04 -172.52)"/><path class="cls-10" d="M256.06,175.08c3.78,9.48,13.19,7.33,20.22,8.63,12.81,2.38,21.1,7.72,21.43,21.59-2.56,4.11-5.15,7.82-8.45.54,7-8.28,2-12.44-5.66-15-10.32-3.41-20.84-6.24-31.28-9.32C252.33,178.69,252.41,175.87,256.06,175.08Z" transform="translate(-15.04 -172.52)"/><path class="cls-11" d="M261.38,202c-9.12-4.56-15.89-1.94-22.34,5.64-5.82,6.82-13,12.48-19.63,18.65-1.47-.8-5.8,1.91-3.84-3.08,9.07-5,15.32-13.1,22.12-20.4,7.42-8,14.72-10,23.92-3.81.72.73.92,1.41.62,2.06S261.65,202,261.38,202Z" transform="translate(-15.04 -172.52)"/><path class="cls-12" d="M297.81,268.49c13.31-7.85,21.08-21.77,33.8-30.27,4.67,2.6,4.4,5.74,1,9.23-11.6-.27-14,11.66-21.87,16.23C306.76,266,305,274.5,297.81,268.49Z" transform="translate(-15.04 -172.52)"/><path class="cls-13" d="M316.75,223.15c-5.45-9.42-6.54-20.09-8.83-30.41.93,0,1.86.06,2.79.07,4.85,9.57,6.58,20,8.62,30.36Q318,225.35,316.75,223.15Z" transform="translate(-15.04 -172.52)"/></g></svg>